<?xml version="1.0" encoding="utf-8"?>
<!-- Generator: Adobe Illustrator 23.0.1, SVG Export Plug-In . SVG Version: 6.00 Build 0)  -->
<svg version="1.1" id="menu_x5F_page" xmlns="http://www.w3.org/2000/svg" xmlns:xlink="http://www.w3.org/1999/xlink" x="0px"
	 y="0px" viewBox="0 0 750 1334" style="enable-background:new 0 0 750 1334;" xml:space="preserve">
<style type="text/css">
	.st0{display:none;opacity:0.5;}
	.st1{display:inline;}
	.st2{fill:#FFFFFF;}
	.st3{display:inline;filter:url(#Adobe_OpacityMaskFilter);}
	.st4{display:inline;opacity:0.1;mask:url(#SVGID_1_);}
	.st5{fill:#0C0C0C;}
	.st6{display:none;fill:#666666;}
	.st7{font-family:'Lato-Regular';}
	.st8{font-size:48px;}
	.st9{display:none;}
	.st10{filter:url(#Adobe_OpacityMaskFilter_1_);}
	.st11{opacity:0.1;mask:url(#SVGID_2_);}
	.st12{fill:#FFCD34;}
	.st13{font-family:'Lato-Bold';}
	.st14{font-size:36px;}
	.st15{letter-spacing:3;}
	.st16{filter:url(#Adobe_OpacityMaskFilter_2_);}
	.st17{opacity:0.1;mask:url(#SVGID_3_);}
	.st18{fill:#D55252;}
	.st19{opacity:0.1;}
	.st20{fill:#D96C6C;}
	.st21{opacity:0.3;}
	.st22{opacity:0.5;}
	.st23{opacity:0.7;}
	.st24{filter:url(#Adobe_OpacityMaskFilter_3_);}
	.st25{opacity:0.1;mask:url(#SVGID_4_);}
	.st26{fill:#4F7DBF;}
	.st27{fill:url(#SVGID_5_);}
	.st28{filter:url(#Adobe_OpacityMaskFilter_4_);}
	.st29{opacity:0.1;mask:url(#SVGID_6_);}
</style>
<g id="frame_x5F_shadow" class="st0">
	<g class="st1">
		<rect y="0" class="st2" width="751" height="1334"/>
	</g>
	<defs>
		<filter id="Adobe_OpacityMaskFilter" filterUnits="userSpaceOnUse" x="0" y="0" width="751" height="1334">
			
				<feColorMatrix  type="matrix" values="-1 0 0 0 1  0 -1 0 0 1  0 0 -1 0 1  0 0 0 1 0" color-interpolation-filters="sRGB" result="source"/>
		</filter>
	</defs>
	<mask maskUnits="userSpaceOnUse" x="0" y="0" width="751" height="1334" id="SVGID_1_" class="st1">
		<g style="filter:url(#Adobe_OpacityMaskFilter);">
			
				<image style="overflow:visible;" width="755" height="1339" xlink:href="D38BFD56588EBEEC.jpg"  transform="matrix(1 0 0 1 -2 -2)">
			</image>
		</g>
	</mask>
	<g class="st4">
		<rect y="0" class="st5" width="751" height="1334"/>
	</g>
</g>
<text transform="matrix(1 0 0 1 144.5725 284.8896)" class="st6 st7 st8">I want to learn about...</text>
<g id="btn_x5F_iso" class="st9">
	<g class="st1">
		<g>
			<rect x="1" y="1061.7" class="st2" width="750" height="272.3"/>
		</g>
		<defs>
			<filter id="Adobe_OpacityMaskFilter_1_" filterUnits="userSpaceOnUse" x="1" y="1061.7" width="750" height="272.3">
				
					<feColorMatrix  type="matrix" values="-1 0 0 0 1  0 -1 0 0 1  0 0 -1 0 1  0 0 0 1 0" color-interpolation-filters="sRGB" result="source"/>
			</filter>
		</defs>
		<mask maskUnits="userSpaceOnUse" x="1" y="1061.7" width="750" height="272.3" id="SVGID_2_">
			<g class="st10">
				
					<image style="overflow:visible;" width="755" height="278" xlink:href="D38BFD56588EBEED.jpg"  transform="matrix(1 0 0 1 -2 1059)">
				</image>
			</g>
		</mask>
		<g class="st11">
			<rect x="1" y="1061.7" width="750" height="272.3"/>
		</g>
	</g>
	<g class="st1">
		<g>
			<path class="st12" d="M405.8,1115.3c-2.2-4.7-6.9-7.7-12.1-7.7h-35.4c-5.2,0-9.9,3-12.1,7.7l-5.1,11h69.9L405.8,1115.3z
				 M390.6,1125H362c-1.6,0-2.8-1.3-2.8-2.8c0-1.6,1.3-2.8,2.8-2.8h28.7c1.6,0,2.8,1.3,2.8,2.8C393.5,1123.8,392.2,1125,390.6,1125z
				"/>
			<g>
				<path class="st12" d="M424.4,1125h-96.8c-10.5,0-19,8.5-19,19v61.9c0,10.5,8.5,19,19,19h96.8c10.5,0,19-8.5,19-19V1144
					C443.4,1133.5,434.9,1125,424.4,1125z M335.2,1193.7h-6.1v-37.5h6.1V1193.7z M368.7,1193.7h-22.1v-5.4h21.4
					c3.2,0,5.4-2.2,5.4-5.4c0-3.2-2.2-5.4-5.4-5.4h-11.3c-6.4,0-10.7-4.5-10.7-10.7c0-5.7,4.3-10.7,10.7-10.7h19.5v5.4h-18.9
					c-3.2,0-5.4,2.2-5.4,5.4s2.2,5.4,5.4,5.4h11.3c6.4,0,10.7,4.5,10.7,10.7C379.4,1188.5,375.1,1193.7,368.7,1193.7z M408.5,1194.2
					c-11.4,0-19.5-7.8-19.5-19.3c0-10.6,8.9-19.3,19.5-19.3c11.4,0,19.4,7.8,19.4,19.3C427.9,1185.4,419,1194.2,408.5,1194.2z"/>
				<path class="st12" d="M408.5,1161.1c-7.6,0-13.3,6.2-13.3,13.8c0,7.6,5.7,13.8,13.3,13.8c7.6,0,13.2-6.2,13.2-13.8
					C421.7,1167.3,416.1,1161.1,408.5,1161.1z"/>
			</g>
		</g>
		<g>
			<text transform="matrix(1 0 0 1 340.8983 1281.6218)" class="st12 st13 st14 st15">ISO</text>
		</g>
	</g>
</g>
<g id="btn_x5F_ss" class="st9">
	<g class="st1">
		<g>
			<rect x="1" y="789.3" class="st2" width="750" height="272.3"/>
		</g>
		<defs>
			<filter id="Adobe_OpacityMaskFilter_2_" filterUnits="userSpaceOnUse" x="1" y="789.3" width="750" height="272.3">
				
					<feColorMatrix  type="matrix" values="-1 0 0 0 1  0 -1 0 0 1  0 0 -1 0 1  0 0 0 1 0" color-interpolation-filters="sRGB" result="source"/>
			</filter>
		</defs>
		<mask maskUnits="userSpaceOnUse" x="1" y="789.3" width="750" height="272.3" id="SVGID_3_">
			<g class="st16">
				
					<image style="overflow:visible;" width="754" height="277" xlink:href="D38BFD56588EBEEB.jpg"  transform="matrix(1 0 0 1 -1 787)">
				</image>
			</g>
		</mask>
		<g class="st17">
			<rect x="1" y="789.3" width="750" height="272.3"/>
		</g>
	</g>
	<g class="st1">
		<g>
			<text transform="matrix(1 0 0 1 241.0558 1017.533)" class="st18 st7 st14 st15">Shutter Speed</text>
		</g>
		<g>
			<g class="st19">
				<g>
					<path class="st20" d="M373.6,865.9c-1.7-2.1-4.8-2.3-6.9-0.6l-13.5,11.4l-6.2-15.4c-0.2-0.6-0.6-1.1-0.9-1.5
						c-1.3-2.8-3.5-5.3-6.5-6.7c-1.3-0.6-2.7-0.9-4.1-1.1c-0.3-0.2-0.6-0.4-0.9-0.5l-23.8-6.6c-1.3-0.4-2.7-0.1-3.8,0.5
						c-1.3,0.4-2.4,1.4-3,2.8l-9,23.1c-1,2.5,0.3,5.3,2.8,6.3c2.5,1,5.3-0.3,6.3-2.8l7.6-19.5l10.9,3c-0.3,0.4-0.6,0.8-0.8,1.3
						l-13.9,30.2c-0.2,0.4-0.3,0.9-0.5,1.4l-16.9,28.4l-28.3,9.5c-3.2,2.4-3.9,6.9-1.5,10.1c2.4,3.2,6.9,3.9,10.1,1.5l29-10
						c0.9-0.6,1.5-1.5,2-2.4c0.4-0.4,0.8-0.7,1.1-1.2l10.1-16.9l17.9,15.3L311.6,947c-2.6,3-2.4,7.6,0.6,10.2
						c3,2.7,7.6,2.4,10.2-0.6l23.9-26.9c0.7-0.8,1.2-1.8,1.5-2.8c0.2-0.5,0.2-1.1,0.2-1.7c0-0.3,0.1-0.5,0.1-0.8
						c-0.1-2-0.9-3.9-2.5-5.3l-16.5-14c1.2-1.1,2.2-2.5,2.9-4.1l10.7-23.1l3.4,9.1c0.1,0.8,0.4,1.6,1,2.3c0.5,0.6,1.2,1,1.9,1.3
						c0.1,0,0.2,0,0.2,0.1c0.4,0.2,0.9,0.3,1.4,0.3c0.6,0.1,1.1,0,1.7-0.2c0,0,0,0,0,0c0.2,0,0.3,0,0.5-0.1c0.8-0.3,1.4-0.8,1.9-1.4
						l19.4-16.5C376.2,871.1,375.3,868,373.6,865.9z"/>
					<circle class="st20" cx="349" cy="840.5" r="13.6"/>
				</g>
			</g>
			<g class="st21">
				<g>
					<path class="st20" d="M403,865.9c-1.7-2.1-4.8-2.3-6.9-0.6l-13.5,11.4l-6.2-15.4c-0.2-0.6-0.6-1.1-0.9-1.5
						c-1.3-2.8-3.5-5.3-6.5-6.7c-1.3-0.6-2.7-0.9-4.1-1.1c-0.3-0.2-0.6-0.4-0.9-0.5l-23.8-6.6c-1.3-0.4-2.7-0.1-3.8,0.5
						c-1.3,0.4-2.4,1.4-3,2.8l-9,23.1c-1,2.5,0.3,5.3,2.8,6.3c2.5,1,5.3-0.3,6.3-2.8l7.6-19.5l10.9,3c-0.3,0.4-0.6,0.8-0.8,1.3
						l-13.9,30.2c-0.2,0.4-0.3,0.9-0.5,1.4l-16.9,28.4l-28.3,9.5c-3.2,2.4-3.9,6.9-1.5,10.1c2.4,3.2,6.9,3.9,10.1,1.5l29-10
						c0.9-0.6,1.5-1.5,2-2.4c0.4-0.4,0.8-0.7,1.1-1.2l10.1-16.9l17.9,15.3L341,947c-2.6,3-2.4,7.6,0.6,10.2c3,2.7,7.6,2.4,10.2-0.6
						l23.9-26.9c0.7-0.8,1.2-1.8,1.5-2.8c0.2-0.5,0.2-1.1,0.2-1.7c0-0.3,0.1-0.5,0.1-0.8c-0.1-2-0.9-3.9-2.5-5.3l-16.5-14
						c1.2-1.1,2.2-2.5,2.9-4.1l10.7-23.1l3.4,9.1c0.1,0.8,0.4,1.6,1,2.3c0.5,0.6,1.2,1,1.9,1.3c0.1,0,0.2,0,0.2,0.1
						c0.4,0.2,0.9,0.3,1.4,0.3c0.6,0.1,1.1,0,1.7-0.2c0,0,0,0,0,0c0.2,0,0.3,0,0.5-0.1c0.8-0.3,1.4-0.8,1.9-1.4l19.4-16.5
						C405.6,871.1,404.7,868,403,865.9z"/>
					<circle class="st20" cx="378.4" cy="840.5" r="13.6"/>
				</g>
			</g>
			<g class="st22">
				<g>
					<path class="st20" d="M432.3,865.9c-1.7-2.1-4.8-2.3-6.9-0.6l-13.5,11.4l-6.2-15.4c-0.2-0.6-0.6-1.1-0.9-1.5
						c-1.3-2.8-3.5-5.3-6.5-6.7c-1.3-0.6-2.7-0.9-4.1-1.1c-0.3-0.2-0.6-0.4-0.9-0.5l-23.8-6.6c-1.3-0.4-2.7-0.1-3.8,0.5
						c-1.3,0.4-2.4,1.4-3,2.8l-9,23.1c-1,2.5,0.3,5.3,2.8,6.3c2.5,1,5.3-0.3,6.3-2.8l7.6-19.5l10.9,3c-0.3,0.4-0.6,0.8-0.8,1.3
						l-13.9,30.2c-0.2,0.4-0.3,0.9-0.5,1.4l-16.9,28.4l-28.3,9.5c-3.2,2.4-3.9,6.9-1.5,10.1c2.4,3.2,6.9,3.9,10.1,1.5l29-10
						c0.9-0.6,1.5-1.5,2-2.4c0.4-0.4,0.8-0.7,1.1-1.2l10.1-16.9l17.9,15.3L370.3,947c-2.6,3-2.4,7.6,0.6,10.2
						c3,2.7,7.6,2.4,10.2-0.6l23.9-26.9c0.7-0.8,1.2-1.8,1.5-2.8c0.2-0.5,0.2-1.1,0.2-1.7c0-0.3,0.1-0.5,0.1-0.8
						c-0.1-2-0.9-3.9-2.5-5.3l-16.5-14c1.2-1.1,2.2-2.5,2.9-4.1l10.7-23.1l3.4,9.1c0.1,0.8,0.4,1.6,1,2.3c0.5,0.6,1.2,1,1.9,1.3
						c0.1,0,0.2,0,0.2,0.1c0.4,0.2,0.9,0.3,1.4,0.3c0.6,0.1,1.1,0,1.7-0.2c0,0,0,0,0,0c0.2,0,0.3,0,0.5-0.1c0.8-0.3,1.4-0.8,1.9-1.4
						l19.4-16.5C434.9,871.1,434.1,868,432.3,865.9z"/>
					<circle class="st20" cx="407.7" cy="840.5" r="13.6"/>
				</g>
			</g>
			<g class="st23">
				<g>
					<path class="st20" d="M461.7,865.9c-1.7-2.1-4.8-2.3-6.9-0.6l-13.5,11.4l-6.2-15.4c-0.2-0.6-0.6-1.1-0.9-1.5
						c-1.3-2.8-3.5-5.3-6.5-6.7c-1.3-0.6-2.7-0.9-4.1-1.1c-0.3-0.2-0.6-0.4-0.9-0.5l-23.8-6.6c-1.3-0.4-2.7-0.1-3.8,0.5
						c-1.3,0.4-2.4,1.4-3,2.8l-9,23.1c-1,2.5,0.3,5.3,2.8,6.3c2.5,1,5.3-0.3,6.3-2.8l7.6-19.5l10.9,3c-0.3,0.4-0.6,0.8-0.8,1.3
						l-13.9,30.2c-0.2,0.4-0.3,0.9-0.5,1.4l-16.9,28.4l-28.3,9.5c-3.2,2.4-3.9,6.9-1.5,10.1c2.4,3.2,6.9,3.9,10.1,1.5l29-10
						c0.9-0.6,1.5-1.5,2-2.4c0.4-0.4,0.8-0.7,1.1-1.2l10.1-16.9l17.9,15.3L399.7,947c-2.6,3-2.4,7.6,0.6,10.2
						c3,2.7,7.6,2.4,10.2-0.6l23.9-26.9c0.7-0.8,1.2-1.8,1.5-2.8c0.2-0.5,0.2-1.1,0.2-1.7c0-0.3,0.1-0.5,0.1-0.8
						c-0.1-2-0.9-3.9-2.5-5.3l-16.5-14c1.2-1.1,2.2-2.5,2.9-4.1l10.7-23.1l3.4,9.1c0.1,0.8,0.4,1.6,1,2.3c0.5,0.6,1.2,1,1.9,1.3
						c0.1,0,0.2,0,0.2,0.1c0.4,0.2,0.9,0.3,1.4,0.3c0.6,0.1,1.1,0,1.7-0.2c0,0,0,0,0,0c0.2,0,0.3,0,0.5-0.1c0.8-0.3,1.4-0.8,1.9-1.4
						l19.4-16.5C464.3,871.1,463.4,868,461.7,865.9z"/>
					<circle class="st20" cx="437.1" cy="840.5" r="13.6"/>
				</g>
			</g>
			<g>
				<g>
					<path class="st20" d="M491.1,865.9c-1.7-2.1-4.8-2.3-6.9-0.6l-13.5,11.4l-6.2-15.4c-0.2-0.6-0.6-1.1-0.9-1.5
						c-1.3-2.8-3.5-5.3-6.5-6.7c-1.3-0.6-2.7-0.9-4.1-1.1c-0.3-0.2-0.6-0.4-0.9-0.5l-23.8-6.6c-1.3-0.4-2.7-0.1-3.8,0.5
						c-1.3,0.4-2.4,1.4-3,2.8l-9,23.1c-1,2.5,0.3,5.3,2.8,6.3c2.5,1,5.3-0.3,6.3-2.8l7.6-19.5l10.9,3c-0.3,0.4-0.6,0.8-0.8,1.3
						l-13.9,30.2c-0.2,0.4-0.3,0.9-0.5,1.4l-16.9,28.4l-28.3,9.5c-3.2,2.4-3.9,6.9-1.5,10.1c2.4,3.2,6.9,3.9,10.1,1.5l29-10
						c0.9-0.6,1.5-1.5,2-2.4c0.4-0.4,0.8-0.7,1.1-1.2l10.1-16.9l17.9,15.3L429,947c-2.6,3-2.4,7.6,0.6,10.2c3,2.7,7.6,2.4,10.2-0.6
						l23.9-26.9c0.7-0.8,1.2-1.8,1.5-2.8c0.2-0.5,0.2-1.1,0.2-1.7c0-0.3,0.1-0.5,0.1-0.8c-0.1-2-0.9-3.9-2.5-5.3l-16.5-14
						c1.2-1.1,2.2-2.5,2.9-4.1l10.7-23.1l3.4,9.1c0.1,0.8,0.4,1.6,1,2.3c0.5,0.6,1.2,1,1.9,1.3c0.1,0,0.2,0,0.2,0.1
						c0.4,0.2,0.9,0.3,1.4,0.3c0.6,0.1,1.1,0,1.7-0.2c0,0,0,0,0,0c0.2,0,0.3,0,0.5-0.1c0.8-0.3,1.4-0.8,1.9-1.4l19.4-16.5
						C493.7,871.1,492.8,868,491.1,865.9z"/>
					<circle class="st20" cx="466.5" cy="840.5" r="13.6"/>
				</g>
			</g>
		</g>
	</g>
</g>
<g id="btn_x5F_a" class="st9">
	<g class="st1">
		<g>
			<g>
				<rect y="517" class="st2" width="750" height="272.3"/>
			</g>
			<defs>
				<filter id="Adobe_OpacityMaskFilter_3_" filterUnits="userSpaceOnUse" x="0" y="517" width="750" height="272.3">
					
						<feColorMatrix  type="matrix" values="-1 0 0 0 1  0 -1 0 0 1  0 0 -1 0 1  0 0 0 1 0" color-interpolation-filters="sRGB" result="source"/>
				</filter>
			</defs>
			<mask maskUnits="userSpaceOnUse" x="0" y="517" width="750" height="272.3" id="SVGID_4_">
				<g class="st24">
					
						<image style="overflow:visible;" width="754" height="277" xlink:href="D38BFD56588EBEF4.jpg"  transform="matrix(1 0 0 1 -2 515)">
					</image>
				</g>
			</mask>
			<g class="st25">
				<rect y="517" width="750" height="272.3"/>
			</g>
		</g>
		<g>
			<g>
				<text transform="matrix(1 0 0 1 288.3309 740.6992)" class="st26 st7 st14 st15">Aperture</text>
			</g>
			<g>
				<g>
					<g>
						<path class="st26" d="M317.2,609.8H279c2.2-9.2,7.6-17.4,15.1-23.2L317.2,609.8z"/>
					</g>
					<g>
						<path class="st26" d="M324.7,578.6v32.7l-1.5-1.5l-25.5-25.6c6.5-3.9,13.8-6,21.5-6C321,578.2,322.9,578.3,324.7,578.6z"/>
					</g>
					<g>
						<path class="st26" d="M350.5,592.5c-0.8,1.8-1.6,3.8-2.2,5.8v0l-19.3,19.3v-38.3C337.3,581.4,344.8,586,350.5,592.5z"/>
					</g>
					<g>
						<path class="st26" d="M344.8,619.6c0,1.8,0.1,3.7,0.2,5.5h-17.6l1.5-1.5l6.1-6.1l11-11C345.2,610.8,344.8,615.2,344.8,619.6z"
							/>
					</g>
					<g>
						<path class="st26" d="M350.5,646.6c-1.9,2.2-4,4.2-6.4,6l-23-23.3h24.4C346.4,635.3,348.1,641.1,350.5,646.6z"/>
					</g>
					<g>
						<path class="st26" d="M340.5,655c-6.4,3.9-13.7,5.9-21.3,5.9c-1.8,0-3.7-0.1-5.5-0.4v-32.7l1.4,1.4L340.5,655z"/>
					</g>
					<g>
						<path class="st26" d="M309.5,621.5v38.2c-9.2-2.2-17.4-7.6-23.1-15.1L309.5,621.5z"/>
					</g>
					<g>
						<path class="st26" d="M310.9,614.1l-1.4,1.5l-12.2,12.2l-13.4,13.4v0c-4-6.5-6.1-13.8-6.1-21.5c0-1.8,0.1-3.7,0.4-5.5H310.9z"
							/>
					</g>
				</g>
				<g>
					<g>
						<g>
							<path class="st26" d="M464.7,590.5l-14.7,24.9l-15.5-26.9h0l-1.6-2.7l-0.3-0.5l-0.6-1h0l-14.7-24.9
								C437.3,561.2,455.1,572.9,464.7,590.5z"/>
						</g>
					</g>
					<g>
						<g>
							<path class="st26" d="M427.1,584.2h-64.6c11.5-16,29.8-25.3,49.8-25.2L427.1,584.2z"/>
						</g>
					</g>
					<g>
						<g>
							<path class="st26" d="M388.8,588.5l-15.5,26.9l-2.4,4.2l-14.4,24.9c-0.2-0.5-0.4-1-0.6-1.5v0c-2.1-5-3.5-10.3-4.2-15.8
								c-0.3-2.5-0.5-5.1-0.5-7.6c0-8.1,1.6-16,4.7-23.4c1.1-2.6,2.4-5.2,3.9-7.7H388.8z"/>
						</g>
					</g>
					<g>
						<g>
							<path class="st26" d="M405.6,679.8c-19.6-2-37.2-13.5-46.8-30.8l14.5-25.2l15.5,26.9h0l2.4,4.2L405.6,679.8z"/>
						</g>
					</g>
					<g>
						<g>
							<path class="st26" d="M460.8,654.9c-11.6,16.1-30.1,25.5-50.1,25.2l-14.5-25.2H460.8z"/>
						</g>
					</g>
					<g>
						<g>
							<path class="st26" d="M472.2,619.6c0,11-3,21.7-8.6,31.1h-29.1l17.1-29.6l0.3-0.4L467,595
								C470.4,602.7,472.2,611.1,472.2,619.6z"/>
						</g>
					</g>
				</g>
			</g>
		</g>
	</g>
</g>
<g id="selected_x5F_a">
	<g id="btn_x5F_selected">
		<g>
			<linearGradient id="SVGID_5_" gradientUnits="userSpaceOnUse" x1="-60.8392" y1="648.743" x2="911.3734" y2="661.2675">
				<stop  offset="0" style="stop-color:#4F7CBD"/>
				<stop  offset="1" style="stop-color:#D25151"/>
			</linearGradient>
			<rect x="-1.9" y="518.2" class="st27" width="751.9" height="272.3"/>
		</g>
		<defs>
			<filter id="Adobe_OpacityMaskFilter_4_" filterUnits="userSpaceOnUse" x="-1.9" y="518.2" width="751.9" height="272.3">
				
					<feColorMatrix  type="matrix" values="-1 0 0 0 1  0 -1 0 0 1  0 0 -1 0 1  0 0 0 1 0" color-interpolation-filters="sRGB" result="source"/>
			</filter>
		</defs>
		<mask maskUnits="userSpaceOnUse" x="-1.9" y="518.2" width="751.9" height="272.3" id="SVGID_6_">
			<g class="st28">
				
					<image style="overflow:visible;" width="756" height="277" xlink:href="D38BFD56588EBEF7.jpg"  transform="matrix(1 0 0 1 -4 516)">
				</image>
			</g>
		</mask>
		<g class="st29">
			<rect x="-1.9" y="518.2" width="751.9" height="272.3"/>
		</g>
	</g>
	<g id="text">
		<g>
			<text transform="matrix(1 0 0 1 288.142 740.6987)" class="st2 st7 st14 st15">Aperture</text>
		</g>
		<g>
			<g>
				<g>
					<g>
						<path class="st2" d="M317.2,609.8H279c2.2-9.2,7.6-17.4,15.1-23.2L317.2,609.8z"/>
					</g>
					<g>
						<path class="st2" d="M324.7,578.6v32.7l-1.5-1.5l-25.5-25.6c6.5-3.9,13.8-6,21.5-6C321,578.2,322.9,578.3,324.7,578.6z"/>
					</g>
					<g>
						<path class="st2" d="M350.5,592.5c-0.8,1.8-1.6,3.8-2.2,5.8v0l-19.3,19.3v-38.3C337.3,581.4,344.8,586,350.5,592.5z"/>
					</g>
					<g>
						<path class="st2" d="M344.8,619.6c0,1.8,0.1,3.7,0.2,5.5h-17.6l1.5-1.5l6.1-6.1l11-11C345.2,610.8,344.8,615.2,344.8,619.6z"
							/>
					</g>
					<g>
						<path class="st2" d="M350.5,646.6c-1.9,2.2-4,4.2-6.4,6l-23-23.3h24.4C346.4,635.3,348.1,641.1,350.5,646.6z"/>
					</g>
					<g>
						<path class="st2" d="M340.5,655c-6.4,3.9-13.7,5.9-21.3,5.9c-1.8,0-3.7-0.1-5.5-0.4v-32.7l1.4,1.4L340.5,655z"/>
					</g>
					<g>
						<path class="st2" d="M309.5,621.5v38.2c-9.2-2.2-17.4-7.6-23.1-15.1L309.5,621.5z"/>
					</g>
					<g>
						<path class="st2" d="M310.9,614.1l-1.4,1.5l-12.2,12.2l-13.4,13.4v0c-4-6.5-6.1-13.8-6.1-21.5c0-1.8,0.1-3.7,0.4-5.5H310.9z"
							/>
					</g>
				</g>
				<g>
					<g>
						<g>
							<path class="st2" d="M464.7,590.5l-14.7,24.9l-15.5-26.9h0l-1.6-2.7l-0.3-0.5l-0.6-1h0l-14.7-24.9
								C437.3,561.2,455.1,572.9,464.7,590.5z"/>
						</g>
					</g>
					<g>
						<g>
							<path class="st2" d="M427.1,584.2h-64.6c11.5-16,29.8-25.3,49.8-25.2L427.1,584.2z"/>
						</g>
					</g>
					<g>
						<g>
							<path class="st2" d="M388.8,588.5l-15.5,26.9l-2.4,4.2l-14.4,24.9c-0.2-0.5-0.4-1-0.6-1.5v0c-2.1-5-3.5-10.3-4.2-15.8
								c-0.3-2.5-0.5-5.1-0.5-7.6c0-8.1,1.6-16,4.7-23.4c1.1-2.6,2.4-5.2,3.9-7.7H388.8z"/>
						</g>
					</g>
					<g>
						<g>
							<path class="st2" d="M405.6,679.8c-19.6-2-37.2-13.5-46.8-30.8l14.5-25.2l15.5,26.9h0l2.4,4.2L405.6,679.8z"/>
						</g>
					</g>
					<g>
						<g>
							<path class="st2" d="M460.8,654.9c-11.6,16.1-30.1,25.5-50.1,25.2l-14.5-25.2H460.8z"/>
						</g>
					</g>
					<g>
						<g>
							<path class="st2" d="M472.2,619.6c0,11-3,21.7-8.6,31.1h-29.1l17.1-29.6l0.3-0.4L467,595
								C470.4,602.7,472.2,611.1,472.2,619.6z"/>
						</g>
					</g>
				</g>
			</g>
		</g>
	</g>
</g>
</svg>
