<?xml version="1.0" encoding="utf-8"?>
<!-- Generator: Adobe Illustrator 23.0.1, SVG Export Plug-In . SVG Version: 6.00 Build 0)  -->
<svg version="1.1" xmlns="http://www.w3.org/2000/svg" xmlns:xlink="http://www.w3.org/1999/xlink" x="0px" y="0px"
	 viewBox="0 0 750 1334" style="enable-background:new 0 0 750 1334;" xml:space="preserve">
<style type="text/css">
	.st0{display:none;}
	.st1{display:inline;}
	.st2{fill:#CCCCCC;}
	.st3{fill:#FFFFFF;}
	.st4{fill:url(#SVGID_1_);}
	.st5{fill:url(#SVGID_2_);}
	.st6{fill:url(#SVGID_3_);}
	.st7{display:inline;fill:#FFFFFF;}
	.st8{fill:none;stroke:#4F7DBF;stroke-width:1.5077;stroke-miterlimit:10;}
	.st9{fill:none;stroke:#4F7DBF;stroke-width:1.5077;stroke-linecap:round;stroke-linejoin:round;stroke-miterlimit:10;}
	.st10{display:none;fill:#4F7DBF;}
	.st11{display:none;fill:#A0C2E7;}
	.st12{fill:#4E4E4E;}
	.st13{font-family:'Lato-Regular';}
	.st14{font-size:24.2609px;}
	.st15{letter-spacing:2;}
	.st16{fill:#4F7DBF;stroke:#FFFFFF;stroke-width:2.0127;stroke-miterlimit:10;}
	.st17{fill:#4E4E4E;stroke:#FFFFFF;stroke-width:1.7304;stroke-miterlimit:10;}
	.st18{display:inline;fill:#D55252;}
	.st19{font-size:48px;}
	.st20{letter-spacing:4;}
	.st21{fill:#39B44A;}
	
		.st22{display:inline;fill:none;stroke:#FFFFFF;stroke-width:2.5299;stroke-linecap:round;stroke-linejoin:round;stroke-miterlimit:10;}
	.st23{fill:#4F7DBF;}
	.st24{font-size:24.5494px;}
</style>
<g id="img" class="st0">
	<g class="st1">
		<circle class="st2" cx="892.6" cy="1023.6" r="29.8"/>
		<text transform="matrix(1 0 0 1 884.3552 1039.8396)" class="st3 st13 st19 st20">!</text>
	</g>
	<image style="display:inline;overflow:visible;" width="750" height="1334" id="_x35_.6" xlink:href="../img/5.6.png" >
	</image>
	<image style="display:inline;overflow:visible;" width="750" height="1334" id="_x39_.0" xlink:href="../img/9.0.png" >
	</image>
	<image style="display:inline;overflow:visible;" width="750" height="1334" id="_x31_4._0" xlink:href="../img/14.0.png" >
	</image>
	<image style="display:inline;overflow:visible;" width="750" height="1334" id="_x31_8.0" xlink:href="../img/18.0.png" >
	</image>
	<image style="overflow:visible;" width="750" height="1334" id="_x32_2.0" xlink:href="../img/22.0.png" >
	</image>
	<image style="overflow:visible;" width="750" height="1334" id="_x32_9.0" xlink:href="../img/29.png" >
	</image>
	<image style="overflow:visible;" width="750" height="1334" id="_x33_6.0" xlink:href="../img/36.0.png" >
	</image>
</g>
<g id="ham" class="st0">
	<g>
		<path class="st3" d="M681.5,46.3c-0.4,0-0.7,0-1.1,0v0c-25.6,0.2-46.2,21-46.2,46.6c0,25.6,20.7,46.4,46.2,46.6v0
			c0.4,0,0.7,0,1.1,0c32,0,59.2,20.4,69.4,48.9v-191C740.8,25.9,713.5,46.3,681.5,46.3z"/>
		<g>
			<g class="st1">
				
					<linearGradient id="SVGID_1_" gradientUnits="userSpaceOnUse" x1="-10246.0977" y1="-6821.8467" x2="-10159.5254" y2="-6802.7847" gradientTransform="matrix(1 0 0 1 10904.5361 6893.7725)">
					<stop  offset="0" style="stop-color:#4F7CBD"/>
					<stop  offset="1" style="stop-color:#D25151"/>
				</linearGradient>
				<path class="st4" d="M717.8,81.9h-50.5c-1.4,0-2.5-1.1-2.5-2.5v0c0-1.4,1.1-2.5,2.5-2.5h50.5c1.4,0,2.5,1.1,2.5,2.5v0
					C720.3,80.8,719.2,81.9,717.8,81.9z"/>
			</g>
			<g class="st1">
				
					<linearGradient id="SVGID_2_" gradientUnits="userSpaceOnUse" x1="-10248.9307" y1="-6808.9805" x2="-10162.3584" y2="-6789.9189" gradientTransform="matrix(1 0 0 1 10904.5361 6893.7725)">
					<stop  offset="0" style="stop-color:#4F7CBD"/>
					<stop  offset="1" style="stop-color:#D25151"/>
				</linearGradient>
				<path class="st5" d="M717.8,95.4h-50.5c-1.4,0-2.5-1.1-2.5-2.5v0c0-1.4,1.1-2.5,2.5-2.5l50.5,0c1.4,0,2.5,1.1,2.5,2.5v0
					C720.3,94.3,719.2,95.4,717.8,95.4z"/>
			</g>
			<g class="st1">
				
					<linearGradient id="SVGID_3_" gradientUnits="userSpaceOnUse" x1="-10251.7637" y1="-6796.1147" x2="-10165.1904" y2="-6777.0527" gradientTransform="matrix(1 0 0 1 10904.5361 6893.7725)">
					<stop  offset="0" style="stop-color:#4F7CBD"/>
					<stop  offset="1" style="stop-color:#D25151"/>
				</linearGradient>
				<path class="st6" d="M717.8,108.9h-50.5c-1.4,0-2.5-1.1-2.5-2.5v0c0-1.4,1.1-2.5,2.5-2.5h50.5c1.4,0,2.5,1.1,2.5,2.5v0
					C720.3,107.8,719.2,108.9,717.8,108.9z"/>
			</g>
		</g>
	</g>
</g>
<g id="bar" class="st0">
	<path class="st7" d="M750.6,1124.9v209H0v-209h260.6c22.8,0,42.5-13.1,52-32.1c11.2-23.3,35.1-39.4,62.7-39.4s51.5,16.1,62.7,39.4
		c9.5,19.1,29.2,32.1,52,32.1H750.6z"/>
	<g class="st1">
		<g>
			<line class="st8" x1="125.2" y1="1260.5" x2="125.2" y2="1248"/>
			<line class="st8" x1="115.8" y1="1260.5" x2="115.8" y2="1248"/>
			<line class="st8" x1="106.4" y1="1260.5" x2="106.4" y2="1248"/>
			<line class="st8" x1="97" y1="1260.5" x2="97" y2="1248"/>
			<line class="st8" x1="172.4" y1="1260.5" x2="172.4" y2="1248"/>
			<line class="st8" x1="162.9" y1="1260.5" x2="162.9" y2="1248"/>
			<line class="st8" x1="153.5" y1="1260.5" x2="153.5" y2="1248"/>
			<line class="st8" x1="144.1" y1="1260.5" x2="144.1" y2="1248"/>
			<line class="st8" x1="219.5" y1="1260.5" x2="219.5" y2="1248"/>
			<line class="st8" x1="210.1" y1="1260.5" x2="210.1" y2="1248"/>
			<line class="st8" x1="200.6" y1="1260.5" x2="200.6" y2="1248"/>
			<line class="st8" x1="191.2" y1="1260.5" x2="191.2" y2="1248"/>
			<line class="st8" x1="266.6" y1="1260.5" x2="266.6" y2="1248"/>
			<line class="st8" x1="257.2" y1="1260.5" x2="257.2" y2="1248"/>
			<line class="st8" x1="247.8" y1="1260.5" x2="247.8" y2="1248"/>
			<line class="st8" x1="238.3" y1="1260.5" x2="238.3" y2="1248"/>
			<line class="st8" x1="313.7" y1="1260.5" x2="313.7" y2="1248"/>
			<line class="st8" x1="304.3" y1="1260.5" x2="304.3" y2="1248"/>
			<line class="st8" x1="294.9" y1="1260.5" x2="294.9" y2="1248"/>
			<line class="st8" x1="285.4" y1="1260.5" x2="285.4" y2="1248"/>
			<line class="st8" x1="360.8" y1="1260.5" x2="360.8" y2="1248"/>
			<line class="st8" x1="351.4" y1="1260.5" x2="351.4" y2="1248"/>
			<line class="st8" x1="342" y1="1260.5" x2="342" y2="1248"/>
			<line class="st8" x1="332.6" y1="1260.5" x2="332.6" y2="1248"/>
			<line class="st8" x1="408" y1="1260.5" x2="408" y2="1248"/>
			<line class="st8" x1="398.5" y1="1260.5" x2="398.5" y2="1248"/>
			<line class="st8" x1="389.1" y1="1260.5" x2="389.1" y2="1248"/>
			<line class="st8" x1="379.7" y1="1260.5" x2="379.7" y2="1248"/>
			<line class="st8" x1="455.1" y1="1260.5" x2="455.1" y2="1248"/>
			<line class="st8" x1="445.7" y1="1260.5" x2="445.7" y2="1248"/>
			<line class="st8" x1="436.2" y1="1260.5" x2="436.2" y2="1248"/>
			<line class="st8" x1="426.8" y1="1260.5" x2="426.8" y2="1248"/>
			<line class="st8" x1="502.2" y1="1260.5" x2="502.2" y2="1248"/>
			<line class="st8" x1="492.8" y1="1260.5" x2="492.8" y2="1248"/>
			<line class="st8" x1="483.4" y1="1260.5" x2="483.4" y2="1248"/>
			<line class="st8" x1="473.9" y1="1260.5" x2="473.9" y2="1248"/>
			<line class="st8" x1="549.3" y1="1260.5" x2="549.3" y2="1248"/>
			<line class="st8" x1="539.9" y1="1260.5" x2="539.9" y2="1248"/>
			<line class="st8" x1="530.5" y1="1260.5" x2="530.5" y2="1248"/>
			<line class="st8" x1="521.1" y1="1260.5" x2="521.1" y2="1248"/>
			<line class="st8" x1="596.5" y1="1260.5" x2="596.5" y2="1248"/>
			<line class="st8" x1="587" y1="1260.5" x2="587" y2="1248"/>
			<line class="st8" x1="577.6" y1="1260.5" x2="577.6" y2="1248"/>
			<line class="st8" x1="568.2" y1="1260.5" x2="568.2" y2="1248"/>
			<line class="st8" x1="643.6" y1="1260.5" x2="643.6" y2="1248"/>
			<line class="st8" x1="634.2" y1="1260.5" x2="634.2" y2="1248"/>
			<line class="st8" x1="624.7" y1="1260.5" x2="624.7" y2="1248"/>
			<line class="st8" x1="615.3" y1="1260.5" x2="615.3" y2="1248"/>
			<line class="st9" x1="87.5" y1="1260.5" x2="87.5" y2="1232.5"/>
			<line class="st9" x1="134.7" y1="1260.5" x2="134.7" y2="1241.1"/>
			<line class="st9" x1="181.8" y1="1260.5" x2="181.8" y2="1232.5"/>
			<line class="st9" x1="228.9" y1="1260.5" x2="228.9" y2="1241.1"/>
			<line class="st9" x1="276" y1="1260.5" x2="276" y2="1232.5"/>
			<line class="st9" x1="323.1" y1="1260.5" x2="323.1" y2="1241.1"/>
			<line class="st9" x1="370.3" y1="1260.5" x2="370.3" y2="1232.5"/>
			<line class="st9" x1="464.5" y1="1260.5" x2="464.5" y2="1232.5"/>
			<line class="st9" x1="417.4" y1="1260.5" x2="417.4" y2="1241.1"/>
			<line class="st9" x1="558.8" y1="1260.5" x2="558.8" y2="1232.5"/>
			<line class="st9" x1="511.6" y1="1260.5" x2="511.6" y2="1241.1"/>
			<line class="st9" x1="653" y1="1260" x2="653" y2="1232"/>
			<line class="st9" x1="605.9" y1="1260.5" x2="605.9" y2="1241.1"/>
		</g>
		<path class="st10" d="M655.5,1288.5h-568c-7.7,0-14-6.3-14-14l0,0c0-7.7,6.3-14,14-14h568c7.7,0,14,6.3,14,14l0,0
			C669.5,1282.2,663.3,1288.5,655.5,1288.5z"/>
		<circle class="st11" cx="251" cy="1274.5" r="28"/>
		<g>
			<text transform="matrix(1 0 0 1 626.3468 1222.1062)" class="st12 st13 st14 st15">f/36</text>
		</g>
		<g>
			<text transform="matrix(1 0 0 1 533.7311 1222.1062)" class="st12 st13 st14 st15">f/29</text>
		</g>
		<g>
			<text transform="matrix(1 0 0 1 441.1163 1222.1063)" class="st12 st13 st14 st15">f/22</text>
		</g>
		<g>
			<text transform="matrix(1 0 0 1 348.5006 1222.1064)" class="st12 st13 st14 st15">f/18</text>
		</g>
		<g>
			<text transform="matrix(1 0 0 1 243.852 1222.106)" class="st12 st13 st14 st15">f/14.0</text>
		</g>
		<g>
			<text transform="matrix(1 0 0 1 159.4849 1222.1061)" class="st12 st13 st14 st15">f/9.0</text>
		</g>
		<text transform="matrix(1 0 0 1 66.8695 1222.1061)" class="st12 st13 st14 st15">f/5.6</text>
	</g>
</g>
<g id="icon_x5F_aperture">
	<g>
		<g>
			<path class="st16" d="M414.9,1100.8l-12.1,20.5l-13.6-23.5L377,1077C393.5,1077.5,407.7,1087,414.9,1100.8z"/>
			<path class="st16" d="M389.2,1097.8h-51.1c7.8-12.5,21.7-20.8,37.6-20.8c0.4,0,0.9,0,1.3,0L389.2,1097.8z"/>
			<path class="st16" d="M362.1,1097.8l-13.6,23.5l-12,20.8c-3.3-6.2-5.2-13.3-5.2-20.8c0-8.6,2.5-16.7,6.7-23.5H362.1z"/>
			<path class="st16" d="M374.1,1165.6c-16.3-0.6-30.4-9.9-37.6-23.5l12-20.8l13.6,23.5L374.1,1165.6z"/>
			<path class="st16" d="M413.2,1144.8c-7.8,12.5-21.7,20.8-37.6,20.8c-0.5,0-1.1,0-1.6,0l-12-20.8H413.2z"/>
			<path class="st16" d="M420,1121.3c0,8.6-2.5,16.7-6.7,23.5h-24l13.6-23.5l12.1-20.5C418.1,1106.9,420,1113.9,420,1121.3z"/>
			<line class="st17" x1="374.1" y1="1165.6" x2="374.1" y2="1165.6"/>
		</g>
	</g>
</g>
<g id="icon_x5F_sign_x5F_correct">
	<g id="icon_x5F_warning" class="st0">
		<circle class="st18" cx="427.8" cy="1080.5" r="29.8"/>
		<text transform="matrix(1 0 0 1 419.543 1096.7854)" class="st7 st13 st19 st20">!</text>
	</g>
	<g id="icon_x5F_correct" class="st0">
		<g class="st1">
			<circle class="st21" cx="427.4" cy="1080.4" r="29.8"/>
		</g>
		<polyline class="st22" points="413.9,1079.9 421.7,1089.7 440.9,1071.1 		"/>
	</g>
</g>
<g id="pop_x5F_pop" class="st0">
	<g class="st1">
		<path class="st3" d="M465.8,1030.3c13.3,0,24-10.7,24-24v-1.3c0-13.3-10.7-24-24-24H284.2c-13.3,0-24,10.7-24,24v1.3
			c0,13.3,10.7,24,24,24h152.5l8.3,15.7"/>
		<text transform="matrix(1 0 0 1 289.9165 1012.9792)" class="st23 st13 st24">Right Aperture!</text>
	</g>
</g>
</svg>
