<?xml version="1.0" encoding="utf-8"?>
<!-- Generator: Adobe Illustrator 23.0.1, SVG Export Plug-In . SVG Version: 6.00 Build 0)  -->
<svg version="1.1" id="welcome_x5F_page" xmlns="http://www.w3.org/2000/svg" xmlns:xlink="http://www.w3.org/1999/xlink" x="0px"
	 y="0px" viewBox="0 0 750 1334" style="enable-background:new 0 0 750 1334;" xml:space="preserve">
<style type="text/css">
	.st0{clip-path:url(#SVGID_2_);}
	.st1{fill:#C5C5C5;}
	.st2{filter:url(#Adobe_OpacityMaskFilter);}
	.st3{opacity:0.5;mask:url(#SVGID_3_);}
	.st4{fill:#0C0C0C;}
	.st5{fill:#E9ECF0;}
	.st6{fill:url(#SVGID_4_);}
	.st7{fill:url(#SVGID_5_);}
	.st8{opacity:0.6;fill:url(#SVGID_6_);}
	.st9{opacity:0.6;fill:url(#SVGID_7_);}
	.st10{fill:url(#SVGID_8_);}
	.st11{fill:url(#SVGID_9_);}
	.st12{fill:url(#SVGID_10_);}
	.st13{fill:url(#SVGID_11_);}
	.st14{opacity:0.7;}
	.st15{fill:#FFFFFF;}
	.st16{filter:url(#Adobe_OpacityMaskFilter_1_);}
	.st17{opacity:0.1;mask:url(#SVGID_12_);}
	.st18{fill:#4E4E4E;}
	.st19{font-family:'Lato-Regular';}
	.st20{font-size:64px;}
	.st21{fill:#808080;}
	.st22{font-size:30px;}
	.st23{opacity:0;fill:#FFFFFF;}
	.st24{fill:url(#SVGID_13_);}
	.st25{fill:url(#SVGID_14_);}
	.st26{fill:url(#SVGID_15_);}
	.st27{fill:url(#SVGID_16_);}
</style>
<g>
	<defs>
		<rect id="SVGID_1_" width="750" height="1334"/>
	</defs>
	<clipPath id="SVGID_2_">
		<use xlink:href="#SVGID_1_"  style="overflow:visible;"/>
	</clipPath>
	<g class="st0">
		<g>
			<g>
				<g>
					<polygon class="st1" points="461.4,344.7 290.5,344.7 169.7,463.6 169.7,631.8 290.5,750.7 461.4,750.7 582.3,631.8 
						582.3,463.6 					"/>
				</g>
				<defs>
					<filter id="Adobe_OpacityMaskFilter" filterUnits="userSpaceOnUse" x="169.7" y="344.7" width="412.6" height="406">
						
							<feColorMatrix  type="matrix" values="-1 0 0 0 1  0 -1 0 0 1  0 0 -1 0 1  0 0 0 1 0" color-interpolation-filters="sRGB" result="source"/>
					</filter>
				</defs>
				<mask maskUnits="userSpaceOnUse" x="169.7" y="344.7" width="412.6" height="406" id="SVGID_3_">
					<g class="st2">
						
							<image style="overflow:visible;" width="418" height="411" xlink:href="971A8970FBD435DB.jpg"  transform="matrix(1 0 0 1 167 342)">
						</image>
					</g>
				</mask>
				<g class="st3">
					<polygon class="st4" points="461.4,344.7 290.5,344.7 169.7,463.6 169.7,631.8 290.5,750.7 461.4,750.7 582.3,631.8 
						582.3,463.6 					"/>
				</g>
			</g>
			<g>
				<g>
					<g>
						<polygon class="st5" points="580.2,-648.2 580.2,459.6 -689.1,-763.6 580.2,-763.6 						"/>
					</g>
					<g>
						<polygon class="st5" points="-346.3,-434.5 466.5,348.8 -1328.5,348.8 -431,-516.1 						"/>
					</g>
					<g>
						<polygon class="st5" points="-854.8,348.6 294.7,348.6 -974.6,1571.8 -974.6,348.6 						"/>
					</g>
					<g>
						<polygon class="st5" points="-641.8,1249.8 171,466.5 171,2196.3 -726.5,1331.4 						"/>
					</g>
					<g>
						<polygon class="st5" points="171,1737.8 171,630 1440.3,1853.2 171,1853.2 						"/>
					</g>
					<g>
						<polygon class="st5" points="1104.6,1529.5 291.8,746.2 2086.9,746.2 1189.4,1611.2 						"/>
					</g>
					<g>
						<polygon class="st5" points="1612.5,746.2 463,746.2 1732.3,-476.9 1732.3,746.2 						"/>
					</g>
					<g>
						<polygon class="st5" points="1393,-143.5 580.2,639.8 580.2,-1090 1477.7,-225.1 						"/>
					</g>
				</g>
			</g>
			<linearGradient id="SVGID_4_" gradientUnits="userSpaceOnUse" x1="494.2994" y1="37.1079" x2="586.0267" y2="34.706">
				<stop  offset="0" style="stop-color:#CACAC9;stop-opacity:0"/>
				<stop  offset="0.3026" style="stop-color:#C7C7C6;stop-opacity:0.3041"/>
				<stop  offset="0.5017" style="stop-color:#BEBEBE;stop-opacity:0.5042"/>
				<stop  offset="0.671" style="stop-color:#B0B0AF;stop-opacity:0.6743"/>
				<stop  offset="0.8235" style="stop-color:#9A9A9A;stop-opacity:0.8276"/>
				<stop  offset="0.9636" style="stop-color:#7F7F7F;stop-opacity:0.9684"/>
				<stop  offset="0.995" style="stop-color:#787878"/>
			</linearGradient>
			<polygon class="st6" points="580,461.4 477,360 496.6,-389.5 579.9,-389.5 			"/>
			
				<linearGradient id="SVGID_5_" gradientUnits="userSpaceOnUse" x1="207.9822" y1="695.6837" x2="292.6769" y2="693.4658" gradientTransform="matrix(-1 0 0 -1 451.0247 1833.2294)">
				<stop  offset="0" style="stop-color:#CACAC9;stop-opacity:0"/>
				<stop  offset="0.3026" style="stop-color:#C7C7C6;stop-opacity:0.3041"/>
				<stop  offset="0.5017" style="stop-color:#BEBEBE;stop-opacity:0.5042"/>
				<stop  offset="0.671" style="stop-color:#B0B0AF;stop-opacity:0.6743"/>
				<stop  offset="0.8235" style="stop-color:#9A9A9A;stop-opacity:0.8276"/>
				<stop  offset="0.9636" style="stop-color:#7F7F7F;stop-opacity:0.9684"/>
				<stop  offset="0.995" style="stop-color:#787878"/>
			</linearGradient>
			<polygon class="st7" points="170.4,629 260.4,762.2 260.4,1647.5 170.4,1647.5 			"/>
			
				<linearGradient id="SVGID_6_" gradientUnits="userSpaceOnUse" x1="-877.1718" y1="502.3692" x2="-845.5843" y2="501.5421" gradientTransform="matrix(-1.674 1.674 -1.703 -1.703 5.801 3283.615)">
				<stop  offset="0" style="stop-color:#CACAC9;stop-opacity:0"/>
				<stop  offset="0.3026" style="stop-color:#C7C7C6;stop-opacity:0.3041"/>
				<stop  offset="0.5017" style="stop-color:#BEBEBE;stop-opacity:0.5042"/>
				<stop  offset="0.671" style="stop-color:#B0B0AF;stop-opacity:0.6743"/>
				<stop  offset="0.8235" style="stop-color:#9A9A9A;stop-opacity:0.8276"/>
				<stop  offset="0.9636" style="stop-color:#7F7F7F;stop-opacity:0.9684"/>
				<stop  offset="0.995" style="stop-color:#787878"/>
			</linearGradient>
			<polygon class="st8" points="291.9,746.3 430,747.3 907.3,1213.4 841.9,1276.4 			"/>
			
				<linearGradient id="SVGID_7_" gradientUnits="userSpaceOnUse" x1="1848.1135" y1="726.5222" x2="1906.693" y2="724.4766" gradientTransform="matrix(1.9239 -1.9239 3.1965 3.1965 -6003.1284 1244.6464)">
				<stop  offset="0" style="stop-color:#CACAC9;stop-opacity:0"/>
				<stop  offset="0.3026" style="stop-color:#C7C7C6;stop-opacity:0.3041"/>
				<stop  offset="0.5017" style="stop-color:#BEBEBE;stop-opacity:0.5042"/>
				<stop  offset="0.671" style="stop-color:#B0B0AF;stop-opacity:0.6743"/>
				<stop  offset="0.8235" style="stop-color:#9A9A9A;stop-opacity:0.8276"/>
				<stop  offset="0.9636" style="stop-color:#7F7F7F;stop-opacity:0.9684"/>
				<stop  offset="0.995" style="stop-color:#787878"/>
			</linearGradient>
			<polygon class="st9" points="465.5,349.2 161.5,348.2 -563.5,-497.7 -488.4,-570.1 			"/>
			
				<linearGradient id="SVGID_8_" gradientUnits="userSpaceOnUse" x1="221.4101" y1="202.8693" x2="295.804" y2="200.2714" gradientTransform="matrix(-4.388987e-08 -1 1.2686 4.388987e-08 -447.5689 635.3894)">
				<stop  offset="0" style="stop-color:#CACAC9;stop-opacity:0"/>
				<stop  offset="0.3026" style="stop-color:#C7C7C6;stop-opacity:0.3041"/>
				<stop  offset="0.5017" style="stop-color:#BEBEBE;stop-opacity:0.5042"/>
				<stop  offset="0.671" style="stop-color:#B0B0AF;stop-opacity:0.6743"/>
				<stop  offset="0.8235" style="stop-color:#9A9A9A;stop-opacity:0.8276"/>
				<stop  offset="0.9636" style="stop-color:#7F7F7F;stop-opacity:0.9684"/>
				<stop  offset="0.995" style="stop-color:#787878"/>
			</linearGradient>
			<polygon class="st10" points="295.6,348.9 208.8,423.9 -678.9,415 -678.9,348.9 			"/>
			
				<linearGradient id="SVGID_9_" gradientUnits="userSpaceOnUse" x1="-163.7005" y1="1044.7219" x2="-107.3" y2="1042.7524" gradientTransform="matrix(-1.3823 -1.3823 2.0647 -2.0647 -2549.1968 2853.0142)">
				<stop  offset="0" style="stop-color:#CACAC9;stop-opacity:0"/>
				<stop  offset="0.3026" style="stop-color:#C7C7C6;stop-opacity:0.3041"/>
				<stop  offset="0.5017" style="stop-color:#BEBEBE;stop-opacity:0.5042"/>
				<stop  offset="0.671" style="stop-color:#B0B0AF;stop-opacity:0.6743"/>
				<stop  offset="0.8235" style="stop-color:#9A9A9A;stop-opacity:0.8276"/>
				<stop  offset="0.9636" style="stop-color:#7F7F7F;stop-opacity:0.9684"/>
				<stop  offset="0.995" style="stop-color:#787878"/>
			</linearGradient>
			<polygon class="st11" points="171.6,468.4 169.6,615.6 -585.6,1302 -639.5,1250 			"/>
			
				<linearGradient id="SVGID_10_" gradientUnits="userSpaceOnUse" x1="-383.6095" y1="464.7581" x2="-301.7849" y2="462.3015" gradientTransform="matrix(1.220266e-07 1 -1.4542 -1.348688e-07 2037.125 1060.9749)">
				<stop  offset="0" style="stop-color:#CACAC9;stop-opacity:0"/>
				<stop  offset="0.3026" style="stop-color:#C7C7C6;stop-opacity:0.3041"/>
				<stop  offset="0.5017" style="stop-color:#BEBEBE;stop-opacity:0.5042"/>
				<stop  offset="0.671" style="stop-color:#B0B0AF;stop-opacity:0.6743"/>
				<stop  offset="0.8235" style="stop-color:#9A9A9A;stop-opacity:0.8276"/>
				<stop  offset="0.9636" style="stop-color:#7F7F7F;stop-opacity:0.9684"/>
				<stop  offset="0.995" style="stop-color:#787878"/>
			</linearGradient>
			<polygon class="st12" points="463,745.1 648,669.1 2262.9,687.7 2262.9,745.1 			"/>
			
				<linearGradient id="SVGID_11_" gradientUnits="userSpaceOnUse" x1="-575.0315" y1="760.4348" x2="-460.0828" y2="756.9836" gradientTransform="matrix(0.7071 0.7071 -1.6046 1.6046 2630.7566 -726.9636)">
				<stop  offset="0" style="stop-color:#CACAC9;stop-opacity:0"/>
				<stop  offset="0.3026" style="stop-color:#C7C7C6;stop-opacity:0.3041"/>
				<stop  offset="0.5017" style="stop-color:#BEBEBE;stop-opacity:0.5042"/>
				<stop  offset="0.671" style="stop-color:#B0B0AF;stop-opacity:0.6743"/>
				<stop  offset="0.8235" style="stop-color:#9A9A9A;stop-opacity:0.8276"/>
				<stop  offset="0.9636" style="stop-color:#7F7F7F;stop-opacity:0.9684"/>
				<stop  offset="0.995" style="stop-color:#787878"/>
			</linearGradient>
			<polygon class="st13" points="580.2,632.8 580.2,475.4 1525.8,-374 1575.4,-326.2 			"/>
		</g>
		<g class="st14">
			<g>
				<rect class="st15" width="750" height="1334"/>
			</g>
			<defs>
				<filter id="Adobe_OpacityMaskFilter_1_" filterUnits="userSpaceOnUse" x="0" y="0" width="750" height="1334">
					
						<feColorMatrix  type="matrix" values="-1 0 0 0 1  0 -1 0 0 1  0 0 -1 0 1  0 0 0 1 0" color-interpolation-filters="sRGB" result="source"/>
				</filter>
			</defs>
			<mask maskUnits="userSpaceOnUse" x="0" y="0" width="750" height="1334" id="SVGID_12_">
				<g class="st16">
					
						<image style="overflow:visible;" width="754" height="1338" xlink:href="971A8970FBD435DE.jpg"  transform="matrix(1 0 0 1 -2 -2)">
					</image>
				</g>
			</mask>
			<g class="st17">
				<rect class="st4" width="750" height="1334"/>
			</g>
		</g>
	</g>
</g>
<text transform="matrix(1.0364 0 0 1 244.4819 1091.0562)" class="st18 st19 st20">TrioCam</text>
<text transform="matrix(1.0364 0 0 1 116.2637 1189.6953)" class="st21 st19 st22">The camera learning app for beginners</text>
<g id="logo">
	<rect x="253" y="457.8" class="st23" width="241.9" height="177.7"/>
	<g>
		<g>
			<linearGradient id="SVGID_13_" gradientUnits="userSpaceOnUse" x1="289.4858" y1="577.5258" x2="289.4858" y2="577.5258">
				<stop  offset="0" style="stop-color:#4F7CBD"/>
				<stop  offset="1" style="stop-color:#D25151"/>
			</linearGradient>
			<path class="st24" d="M289.5,577.5"/>
		</g>
		<g>
			<linearGradient id="SVGID_14_" gradientUnits="userSpaceOnUse" x1="215.3992" y1="525.382" x2="618.6959" y2="579.2546">
				<stop  offset="0" style="stop-color:#4F7CBD"/>
				<stop  offset="1" style="stop-color:#D25151"/>
			</linearGradient>
			<path class="st25" d="M375,635.6c-2.3,0-4.6-0.6-6.7-1.8l-106.5-61.5c-4.1-2.4-6.7-6.8-6.7-11.6v-22c0-4,2-7.5,5.5-9.5
				c3.4-2,7.5-2,10.9,0l102.9,59.4c0.4,0.2,0.9,0.2,1.2,0l104.7-60.5l-104.7-60.5c-0.4-0.2-0.9-0.2-1.2,0l-90,52
				c-2.3,1.3-5.3,0.5-6.6-1.8c-1.3-2.3-0.5-5.3,1.8-6.6l90-52c3.4-1.9,7.6-1.9,10.9,0l112,64.7c1.5,0.9,2.4,2.5,2.4,4.2
				s-0.9,3.3-2.4,4.2l-112,64.7c-3.4,1.9-7.6,1.9-10.9,0l-102.9-59.4c-0.5-0.3-1-0.2-1.2,0c-0.3,0.2-0.6,0.5-0.6,1.1v22
				c0,1.3,0.7,2.5,1.8,3.2l106.5,61.5c1.2,0.7,2.6,0.7,3.7,0l110.8-64c2.3-1.3,5.3-0.5,6.6,1.8c1.3,2.3,0.5,5.3-1.8,6.6l-110.8,64
				C379.6,635,377.3,635.6,375,635.6z"/>
		</g>
		<g>
			<linearGradient id="SVGID_15_" gradientUnits="userSpaceOnUse" x1="218.5746" y1="501.6104" x2="621.8713" y2="555.483">
				<stop  offset="0" style="stop-color:#4F7CBD"/>
				<stop  offset="1" style="stop-color:#D25151"/>
			</linearGradient>
			<path class="st26" d="M373.9,551.5c-26.3,0-47-12.8-47-29.2c0-16.4,20.6-29.2,47-29.2s47,12.8,47,29.2
				C420.8,538.7,400.2,551.5,373.9,551.5z M373.9,502.9c-22.3,0-37.3,10.1-37.3,19.5c0,9.4,15,19.5,37.3,19.5
				c22.3,0,37.3-10.1,37.3-19.5C411.1,513,396.1,502.9,373.9,502.9z"/>
		</g>
		<g>
			<linearGradient id="SVGID_16_" gradientUnits="userSpaceOnUse" x1="224.0225" y1="460.827" x2="627.3192" y2="514.6996">
				<stop  offset="0" style="stop-color:#4F7CBD"/>
				<stop  offset="1" style="stop-color:#D25151"/>
			</linearGradient>
			<ellipse class="st27" cx="375.3" cy="481" rx="6.7" ry="4"/>
		</g>
	</g>
</g>
</svg>
